<svg width="251" height="260" viewBox="0 0 251 260" fill="none" xmlns="http://www.w3.org/2000/svg">
<path d="M250.531 141.555L209.942 117.823L237.787 121.67L172.023 61.5564L131.722 125.036L125.519 162.21L119.339 125.036L79.039 61.5564L13.2748 121.67L41.1675 117.823L0.530762 141.555L42.6102 161.393H23.0373L72.2341 190.127L86.1564 240.454L118.449 259.161L125.519 252.886H122.513L108.495 232.76L111.188 227.951H140.042L142.735 232.76L128.621 252.91H125.519L132.732 259.186L164.905 240.454L178.827 190.103L228.024 161.369H208.451L250.531 141.555ZM95.8467 143.335L83.824 144.657L69.8296 128.21C69.8296 128.21 93.6105 133.019 94.2597 133.332C94.909 133.644 110.707 156.8 110.707 156.8L95.8467 143.335ZM167.213 144.657L155.191 143.335L140.283 156.8C140.283 156.8 156.08 133.548 156.73 133.332C157.379 133.115 181.184 128.21 181.184 128.21L167.213 144.657Z" fill="white"/>
<path d="M176.976 42.8977L212.756 0.553711L212.083 78.6772L176.976 42.8977Z" fill="white"/>
<path d="M74.0867 42.897L40.9762 0L38.9805 78.6765L74.0867 42.897Z" fill="white"/>
<path d="M108.495 232.76L111.188 227.951H125.615V162.21L119.339 125.036L79.039 61.5564L13.2748 121.67L41.1675 117.823L0.530762 141.555L42.6102 161.393H23.0373L72.2341 190.127L86.1564 240.454L118.449 259.161L125.519 252.886H122.513L108.495 232.76ZM83.8481 144.657L69.8536 128.21C69.8536 128.21 93.6345 133.019 94.2838 133.332C94.933 133.645 110.731 156.8 110.731 156.8L95.8467 143.335L83.8481 144.657Z" fill="#C3E4E8"/>
<path d="M40.9762 0L38.9805 78.6765L74.0867 42.897L40.9762 0Z" fill="#C3E4E8"/>
</svg>
